<?xml version="1.0" ?><svg fill="none" height="24" viewBox="0 0 24 24" width="24" xmlns="http://www.w3.org/2000/svg"><path clip-rule="evenodd" d="M6.5 1C3.46243 1 1 3.46243 1 6.5V17.5C1 20.5376 3.46243 23 6.5 23H17.5C20.5376 23 23 20.5376 23 17.5V6.5C23 3.46243 20.5376 1 17.5 1H6.5ZM12 8C9.79086 8 8 9.79086 8 12C8 14.2091 9.79086 16 12 16C14.2091 16 16 14.2091 16 12C16 9.79086 14.2091 8 12 8ZM6 12C6 8.68629 8.68629 6 12 6C15.3137 6 18 8.68629 18 12C18 15.3137 15.3137 18 12 18C8.68629 18 6 15.3137 6 12ZM18 4C16.8954 4 16 4.89543 16 6C16 7.10457 16.8954 8 18 8C19.1046 8 20 7.10457 20 6C20 4.89543 19.1046 4 18 4Z" fill="black" fill-rule="evenodd"/></svg>